#!OML:ASF H:\Punching\Project 1\Capture day 1\Session 1\female.ASF
:FULLY-SPECIFIED
:DEGREES
1057
root 2.7839 14.3519 -1.75478 18.2465 12.7958 4.39534
lowerback -3.04409 -0.997404 -2.7237
upperback -7.79915 -1.34063 -0.152025
thorax -6.34521 -0.497347 1.39552
lowerneck -15.5474 0.619285 5.77638
upperneck 36.3204 -0.189425 -1.7925
head 15.3356 0.526359 -1.79925
rclavicle 7.2867e-015 1.98785e-015
rhumerus 9.53559 16.8413 -67.9989
rradius 132.113
rwrist -18.8209
rhand -28.2996 7.96481
rfingers 7.12502
rthumb -1.67524 -22.0084
lclavicle 7.2867e-015 1.98785e-015
lhumerus -2.69477 -25.3564 76.0715
lradius 138.134
lwrist -1.85373
lhand -28.5485 -1.28532
lfingers 7.12502
lthumb -1.91566 28.6858
rfemur -56.3327 -9.10735 4.44163
rtibia 52.7398
rfoot -7.5037 -10.3011
rtoes -2.89782
lfemur -1.63248 -16.7261 -17.2481
ltibia 21.2826
lfoot -37.226 33.22
ltoes -3.41445
1058
root 2.79946 14.351 -1.75661 18.1546 12.6087 4.32383
lowerback -3.08483 -1.00764 -2.70966
upperback -7.8347 -1.35282 -0.133283
thorax -6.3594 -0.50321 1.40709
lowerneck -15.4704 0.641387 5.8243
upperneck 36.4257 -0.194444 -1.72583
head 15.37 0.5424 -1.78171
rclavicle 1.41114e-014 2.26615e-014
rhumerus 9.52882 16.8481 -67.8651
rradius 132.12
rwrist -18.8429
rhand -28.2955 7.86268
rfingers 7.12502
rthumb -1.67127 -22.1105
lclavicle 1.41114e-014 2.26615e-014
lhumerus -2.77035 -25.3622 76.0651
lradius 138.175
lwrist -1.84377
lhand -28.433 -1.1356
lfingers 7.12502
lthumb -1.80412 28.8365
rfemur -56.2785 -8.94115 4.41223
rtibia 52.6467
rfoot -7.40722 -10.2632
rtoes -2.92971
lfemur -1.48566 -16.6555 -17.3481
ltibia 21.2908
lfoot -37.3453 33.2894
ltoes -3.39143
1059
root 2.81517 14.3504 -1.75867 18.0756 12.4017 4.24335
lowerback -3.12742 -1.01522 -2.67888
upperback -7.88053 -1.36124 -0.110879
thorax -6.38395 -0.507829 1.41311
lowerneck -15.3614 0.666274 5.87846
upperneck 36.5108 -0.18942 -1.67348
head 15.3873 0.560992 -1.76909
rclavicle -2.69043e-014 -1.59028e-015
rhumerus 9.50278 16.8717 -67.7439
rradius 132.136
rwrist -18.8533
rhand -28.3184 7.74921
rfingers 7.12502
rthumb -1.69342 -22.2238
lclavicle -2.69043e-014 -1.59028e-015
lhumerus -2.86859 -25.3686 76.0538
lradius 138.217
lwrist -1.84791
lhand -28.3486 -0.998159
lfingers 7.12502
lthumb -1.72264 28.9746
rfemur -56.244 -8.7712 4.39917
rtibia 52.541
rfoot -7.30052 -10.2134
rtoes -2.97137
lfemur -1.35443 -16.5882 -17.4443
ltibia 21.3049
lfoot -37.4874 33.369
ltoes -3.33799
1060
root 2.83102 14.3504 -1.76071 18.0081 12.1772 4.15696
lowerback -3.17221 -1.02121 -2.63663
upperback -7.91836 -1.36715 -0.0847592
thorax -6.39885 -0.512041 1.41643
lowerneck -15.2851 0.700079 5.94456
upperneck 36.5863 -0.171211 -1.63783
head 15.4084 0.584112 -1.76347
rclavicle 1.89777e-014 -1.82882e-014
rhumerus 9.48987 16.8955 -67.6313
rradius 132.157
rwrist -18.8622
rhand -28.3597 7.64694
rfingers 7.12502
rthumb -1.73333 -22.3258
lclavicle 1.89777e-014 -1.82882e-014
lhumerus -2.9469 -25.3719 76.0223
lradius 138.253
lwrist -1.87091
lhand -28.3201 -0.874735
lfingers 7.12502
lthumb -1.69511 29.0983
rfemur -56.2248 -8.59896 4.39907
rtibia 52.4233
rfoot -7.18522 -10.1537
rtoes -3.01957
lfemur -1.2313 -16.5304 -17.5406
ltibia 21.3162
lfoot -37.6494 33.4604
ltoes -3.24214
1061
root 2.8467 14.3509 -1.76283 17.956 11.9324 4.07393
lowerback -3.21928 -1.02513 -2.59631
upperback -7.94649 -1.37015 -0.057795
thorax -6.40207 -0.514967 1.4215
lowerneck -15.2524 0.743609 6.02071
upperneck 36.6554 -0.140472 -1.61464
head 15.4374 0.611912 -1.76292
rclavicle -1.36944e-014 1.03368e-014
rhumerus 9.49367 16.9132 -67.5261
rradius 132.186
rwrist -18.8916
rhand -28.4123 7.55455
rfingers 7.12502
rthumb -1.78407 -22.4177
lclavicle -1.36944e-014 1.03368e-014
lhumerus -3.00251 -25.3748 75.9739
lradius 138.284
lwrist -1.90116
lhand -28.332 -0.754925
lfingers 7.12502
lthumb -1.70657 29.218
rfemur -56.2257 -8.41869 4.39869
rtibia 52.2964
rfoot -7.05843 -10.0899
rtoes -3.07142
lfemur -1.11659 -16.4897 -17.6467
ltibia 21.3184
lfoot -37.8282 33.5712
ltoes -3.09983
1062
root 2.86214 14.3522 -1.7649 17.9187 11.6748 3.9946
lowerback -3.27097 -1.02988 -2.55764
upperback -7.96391 -1.37399 -0.0286566
thorax -6.39101 -0.518494 1.42957
lowerneck -15.2625 0.797354 6.10377
upperneck 36.7193 -0.0961869 -1.60196
head 15.475 0.644688 -1.7659
rclavicle 3.1321e-014 5.56597e-015
rhumerus 9.50362 16.9185 -67.434
rradius 132.223
rwrist -18.9473
rhand -28.459 7.49672
rfingers 7.12502
rthumb -1.82924 -22.4752
lclavicle 3.1321e-014 5.56597e-015
lhumerus -3.03323 -25.3746 75.9097
lradius 138.311
lwrist -1.93042
lhand -28.3746 -0.640046
lfingers 7.12502
lthumb -1.74766 29.3325
rfemur -56.2446 -8.2367 4.39908
rtibia 52.163
rfoot -6.92197 -10.0217
rtoes -3.12515
lfemur -1.00938 -16.4646 -17.7593
ltibia 21.308
lfoot -38.0181 33.6948
ltoes -2.91491
1063
root 2.87712 14.3541 -1.76695 17.8992 11.4063 3.92649
lowerback -3.32425 -1.03707 -2.52976
upperback -7.97801 -1.38115 0.000943727
thorax -6.37515 -0.523127 1.44414
lowerneck -15.2965 0.859375 6.19024
upperneck 36.7775 -0.0405089 -1.59488
head 15.5161 0.681741 -1.76991
rclavicle 1.24924e-014 -2.78299e-015
rhumerus 9.51571 16.9174 -67.3538
rradius 132.268
rwrist -19.0311
rhand -28.4955 7.43835
rfingers 7.12502
rthumb -1.86443 -22.5332
lclavicle 1.24924e-014 -2.78299e-015
lhumerus -3.05472 -25.3758 75.8377
lradius 138.336
lwrist -1.9553
lhand -28.4342 -0.514437
lfingers 7.12502
lthumb -1.80525 29.4577
rfemur -56.2845 -8.05563 4.3925
rtibia 52.0265
rfoot -6.77231 -9.95232
rtoes -3.17272
lfemur -0.913033 -16.4557 -17.8841
ltibia 21.2867
lfoot -38.2151 33.8312
ltoes -2.69939
1064
root 2.8915 14.3568 -1.76903 17.8982 11.1325 3.86863
lowerback -3.38225 -1.04797 -2.51154
upperback -7.99086 -1.39321 0.0319609
thorax -6.35486 -0.529658 1.46555
lowerneck -15.3433 0.927367 6.27567
upperneck 36.8287 0.024237 -1.59021
head 15.5576 0.72188 -1.7731
rclavicle -3.25665e-014 6.75868e-015
rhumerus 9.52443 16.9089 -67.2867
rradius 132.315
rwrist -19.1341
rhand -28.5074 7.39102
rfingers 7.12502
rthumb -1.87595 -22.5805
lclavicle -3.25665e-014 6.75868e-015
lhumerus -3.07022 -25.3772 75.7647
lradius 138.358
lwrist -1.97505
lhand -28.4974 -0.385604
lfingers 7.12502
lthumb -1.86634 29.586
rfemur -56.3458 -7.88013 4.38175
rtibia 51.8891
rfoot -6.61177 -9.88209
rtoes -3.22592
lfemur -0.831971 -16.4611 -18.0163
ltibia 21.2574
lfoot -38.4208 33.9719
ltoes -2.45025
